<?xml version="1.0" encoding="UTF-8" standalone="no"?>
<svg
   xmlns:dc="http://purl.org/dc/elements/1.1/"
   xmlns:cc="http://creativecommons.org/ns#"
   xmlns:rdf="http://www.w3.org/1999/02/22-rdf-syntax-ns#"
   xmlns:svg="http://www.w3.org/2000/svg"
   xmlns="http://www.w3.org/2000/svg"
   xml:space="preserve"
   style="enable-background:new 0 0 324.473 324.473;"
   viewBox="0 0 324.473 324.473"
   y="0px"
   x="0px"
   id="Layer_1"
   version="1.1"><metadata
     id="metadata3498"><rdf:RDF><cc:Work
         rdf:about=""><dc:format>image/svg+xml</dc:format><dc:type
           rdf:resource="http://purl.org/dc/dcmitype/StillImage" /></cc:Work></rdf:RDF></metadata><defs
     id="defs3496" /><g
     id="g3438"><path
       id="path3440"
       d="m 316.331,68.616 c 0,-12.792 -10.467,-23.259 -23.259,-23.259 l -232.596,0 c -12.793,0 -23.26,10.467 -23.26,23.259 l 0,232.596 c 0,12.793 10.467,23.261 23.26,23.261 l 232.596,0 c 12.793,0 23.259,-10.468 23.259,-23.261 l 0,-232.596 z"
       style="fill:#bfa070" /><path
       id="path3442"
       d="m 287.257,68.616 c 0,-12.792 -10.467,-23.259 -23.26,-23.259 l -232.596,0 c -12.792,0 -23.259,10.467 -23.259,23.259 l 0,232.596 c 0,12.793 10.467,23.261 23.259,23.261 l 232.596,0 c 12.793,0 23.26,-10.468 23.26,-23.261 l 0,-232.596 z"
       style="fill:#dfcaa3" /><g
       id="g3444"><path
         id="rect3446"
         d="m 43.030998,80.246002 209.336002,0 0,209.337008 -209.336002,0 z"
         style="fill:#dcddde" /><path
         id="rect3448"
         d="m 43.030998,80.246002 209.336002,0 0,51.170998 -209.336002,0 z"
         style="fill:#d16a70" /><path
         id="rect3450"
         d="m 20.934,80.246002 209.33701,0 0,209.337008 -209.33701,0 z"
         style="fill:#ffffff" /><path
         id="rect3452"
         d="m 20.934,80.246002 209.33701,0 0,51.170998 -209.33701,0 z"
         style="fill:#ff8189" /></g><path
       id="path3458"
       d="M 85.379,0 C 51.4,0 23.756,27.643 23.756,61.624 c 0,16.458 6.409,31.935 18.048,43.574 2.271,2.272 5.247,3.407 8.225,3.407 2.975,0 5.952,-1.136 8.222,-3.406 4.542,-4.541 4.543,-11.904 0.002,-16.446 -7.247,-7.248 -11.237,-16.882 -11.237,-27.129 0,-21.154 17.21,-38.363 38.363,-38.363 15.341,0 28.601,9.054 34.734,22.097 l 24.695,0 C 137.653,19.248 113.728,0 85.379,0 Z"
       style="fill:#4c5b6b" /><path
       id="path3460"
       d="m 159.577,0 c -33.979,0 -61.623,27.643 -61.623,61.624 0,16.458 6.41,31.935 18.048,43.574 2.271,2.272 5.247,3.407 8.225,3.407 2.975,0 5.952,-1.136 8.223,-3.406 4.542,-4.541 4.543,-11.904 0.002,-16.446 -7.247,-7.248 -11.237,-16.882 -11.237,-27.129 0,-21.154 17.21,-38.363 38.364,-38.363 15.34,0 28.601,9.054 34.734,22.097 l 24.694,0 C 211.85,19.248 187.925,0 159.577,0 Z"
       style="fill:#3e4a57" /><path
       id="path3462"
       d="m 233.774,0 c -33.979,0 -61.623,27.643 -61.623,61.624 0,16.458 6.41,31.935 18.048,43.574 2.271,2.272 5.247,3.407 8.224,3.407 2.976,0 5.953,-1.136 8.223,-3.406 4.542,-4.541 4.543,-11.904 0.001,-16.446 -7.246,-7.248 -11.237,-16.882 -11.237,-27.129 0,-21.154 17.21,-38.363 38.364,-38.363 15.341,0 28.601,9.054 34.734,22.097 l 24.694,0 C 286.047,19.248 262.123,0 233.774,0 Z"
       style="fill:#4c5b6b" /></g><g
     id="g3464" /><g
     id="g3466" /><g
     id="g3468" /><g
     id="g3470" /><g
     id="g3472" /><g
     id="g3474" /><g
     id="g3476" /><g
     id="g3478" /><g
     id="g3480" /><g
     id="g3482" /><g
     id="g3484" /><g
     id="g3486" /><g
     id="g3488" /><g
     id="g3490" /><g
     id="g3492" /><g
     id="text3500"
     style="font-style:normal;font-variant:normal;font-weight:normal;font-stretch:normal;font-size:72.95127869px;line-height:125%;font-family:Oradano-mincho-GSRR;-inkscape-font-specification:Oradano-mincho-GSRR;letter-spacing:0px;word-spacing:0px;fill:#000000;fill-opacity:1;stroke:none;stroke-width:1px;stroke-linecap:butt;stroke-linejoin:miter;stroke-opacity:1"><path
       id="path40"
       style="font-style:normal;font-variant:normal;font-weight:normal;font-stretch:normal;font-size:45.59454727px;font-family:Oradano-mincho-GSRR;-inkscape-font-specification:Oradano-mincho-GSRR"
       d="m 42.041155,159.38532 0.311681,-0.40074 1.64746,0.0445 1.691985,0.0445 0.133577,0.22263 q 0.311682,0.40073 0.489786,0.48978 0.178103,0.0891 0.845992,0.0891 0.845993,0 0.979571,0.17811 0.178103,0.1781 0.578837,0.57883 0.400733,0.40074 0.578837,0.62337 l 0.133577,0.22263 1.291252,0 1.291252,0 0.267156,0.3562 q 0.267155,0.35621 0.311681,0.35621 0.08905,0 0.623363,0.53431 0.534311,0.53431 0.756941,0.846 0.222629,0.26715 0.311681,0.26715 0.445259,0 0.311682,0.80147 -0.04453,0.40073 0.178103,0.57883 0.311682,0.26716 0.890519,0.89052 0.08905,0.0445 0.311681,0.26716 0.267156,0.22263 0.267156,0.66789 -0.04453,0.80146 0.356207,0.80146 0.133578,0 0.267156,0.22263 0.178104,0.22263 0.133578,0.62337 -0.04453,0.3562 0.178103,0.57883 0.267156,0.22263 0.44526,0.35621 l 0.178103,0.13358 0,2.4044 q -0.04453,2.44892 0,2.5825 0.04453,0.13358 0.356208,0.31168 0.311681,0.13358 0.356207,0.22263 0.08905,0.0891 0.04453,2.09272 0,1.95914 -0.08905,2.09272 -0.08905,0.13358 -0.311681,0.22263 -0.534311,0.1781 -0.44526,1.29125 0.04453,0.62336 -0.04453,0.80147 -0.04453,0.13358 -0.356208,0.31168 -0.445259,0.22263 -0.400733,0.80147 0.04453,0.62336 -0.356208,0.75694 -0.534311,0.22263 -0.445259,0.84599 0.04453,0.31168 -0.04453,0.44526 -0.04453,0.0891 -0.578837,0.53431 -0.178104,0.1781 -0.178104,0.62336 0,0.75694 -0.356207,0.75694 -0.08905,0 -0.267155,0.17811 -0.178104,0.1781 -0.178104,0.66789 0,0.48978 -0.311682,0.71241 -0.311681,0.22263 -0.578837,0.53431 -0.267155,0.31168 -0.712414,0.31168 -0.44526,-0.0445 -0.712415,0.26716 -0.22263,0.31168 -0.356208,0.40073 -0.08905,0.089 -0.534311,0.53431 -0.445259,0.44526 -0.534311,0.48979 -0.04453,0 -0.267155,0.31168 -0.22263,0.31168 -0.756941,0.31168 -0.400733,0.0445 -0.534311,0.089 -0.08905,0.0445 -0.267156,0.31169 l -0.267155,0.3562 -3.695652,0 -3.695652,0 -0.267155,-0.3562 -0.267156,-0.40074 -0.845993,0 q -0.712414,0 -0.890518,-0.0891 -0.178104,-0.0445 -0.445259,-0.40073 -0.22263,-0.31168 -0.400734,-0.35621 -0.133577,-0.0445 -0.267155,-0.31168 -0.22263,-0.35621 -0.400734,-0.44526 -0.133577,-0.089 -0.489785,-0.089 l -0.445259,0 -0.578837,-0.66789 q -0.578837,-0.62336 -0.935044,-0.89052 -0.22263,-0.1781 -0.267156,-0.26716 -0.04453,-0.13357 -0.08905,-0.53431 -0.04453,-0.53431 -0.222629,-0.66789 -0.267156,-0.1781 -0.756941,-0.71241 -0.22263,-0.22263 -0.445259,-0.40073 -0.178104,-0.17811 -0.133578,-0.53432 0.08905,-0.62336 -0.445259,-0.89051 -0.44526,-0.22263 -0.356208,-0.75694 0.08905,-0.62337 -0.400733,-0.846 -0.311682,-0.0891 -0.400734,-0.26715 -0.04453,-0.22263 0,-0.89052 0.04453,-0.66789 -0.04453,-0.84599 -0.04453,-0.22263 -0.400734,-0.40074 -0.311681,-0.1781 -0.356207,-0.31168 0,-0.13358 0.04453,-1.60293 0.04453,-1.46936 -0.04453,-1.69199 -0.04453,-0.22263 -0.267156,-0.31168 -0.356207,-0.1781 -0.445259,-0.31168 -0.04453,-0.1781 -0.04453,-0.84599 0,-0.80147 0.04453,-0.89052 0.08905,-0.13358 0.356207,-0.26716 0.356208,-0.13357 0.400734,-0.40073 0.08905,-0.31168 0.04453,-1.24673 -0.04453,-1.15767 0.08905,-1.33577 0.178103,-0.22263 0.267155,-0.22263 0.133578,0 0.311682,-0.22263 0.178103,-0.22263 0.133577,-0.97957 -0.04453,-0.75694 0.04453,-0.89052 0.08905,-0.13358 0.311682,-0.26716 0.445259,-0.22263 0.489785,-0.89052 0,-0.48978 0.22263,-0.62336 0.356207,-0.22263 0.445259,-0.35621 0.133578,-0.1781 0.133578,-0.53431 0,-0.48978 0.311681,-0.71241 0.311682,-0.26716 0.445259,-0.53431 0.178104,-0.31168 0.400734,-0.35621 0.400733,-0.089 0.400733,-0.80147 0,-0.31168 0.178104,-0.53431 0.178103,-0.22263 1.246726,-1.24672 0.133577,-0.13358 0.267155,-0.31169 0.178104,-0.22263 0.578837,-0.22263 0.445259,0 0.578837,-0.0445 0.178104,-0.089 0.356208,-0.40073 l 0.267155,-0.35621 0.489785,0 0.534311,0 0.267156,-0.40074 0.311681,-0.40073 0.890519,0 0.890518,0 0.356208,-0.40073 z m 3.294918,3.20586 q -0.133578,-0.1781 -0.311681,-0.3562 -0.133578,-0.22263 -1.2022,-0.22263 -1.157674,-0.0445 -1.42483,0 -0.222629,0.0445 -0.489785,0.40073 l -0.267156,0.40073 -0.534311,0 -0.489785,0 -0.267155,0.35621 q -0.267156,0.35621 -0.356208,0.35621 -0.04453,0 -0.935044,0.89052 -0.845993,0.89052 -0.935045,0.89052 -0.08905,0 -0.222629,0.26715 -0.08905,0.26716 -0.04453,0.53431 0.04453,0.22263 -0.04453,0.35621 -0.08905,0.13358 -0.534311,0.44526 l -0.22263,0.22263 0,0.84599 q 0,0.71242 -0.08905,0.93505 -0.04453,0.1781 -0.356207,0.26715 -0.22263,0.13358 -0.311682,0.31168 -0.08905,0.13358 -0.133577,6.99057 l -0.04453,6.857 0.178103,0.1781 q 0.22263,0.1781 0.400734,0.35621 0.222629,0.13357 0.222629,0.57883 0,0.40074 0.08905,0.57884 0.08905,0.13358 0.489785,0.40073 0.22263,0.13358 0.22263,0.62337 0,0.48978 0.178104,0.62336 0.623363,0.57884 0.801466,0.80147 0.133578,0.22263 0.667889,0.26715 0.534311,0.0445 0.712415,0.35621 0.22263,0.26716 0.356208,0.40073 0.178103,0.0891 1.736511,0.0891 1.558407,0 1.647459,0 0.133578,0 0.267155,0.31168 0.267156,0.3562 0.400734,0.44526 0.178103,0.0445 0.935044,0.0445 0.712415,0 0.845993,-0.0445 0.133577,-0.0445 0.267155,-0.22263 0.356208,-0.44526 0.489785,-0.48979 0.133578,-0.0445 0.845993,-0.0445 l 0.845993,0 0.222629,-0.26716 q 0.623363,-0.80147 1.558408,-1.51388 0.222629,-0.17811 0.178103,-0.57884 -0.04453,-0.66789 0.400734,-0.84599 0.534311,-0.22263 0.445259,-0.80147 -0.08905,-0.57884 0.356207,-0.80146 0.267156,-0.13358 0.356208,-0.31169 0.08905,-0.22263 0.08905,-2.18177 0,-1.60293 0.04453,-1.82556 0.08905,-0.22263 0.534312,-0.62336 l 0.222629,-0.22263 0,-1.29125 q 0,-1.29126 -0.133578,-1.42483 -0.133577,-0.13358 -0.222629,-0.13358 -0.08905,0 -0.22263,-0.17811 -0.133578,-0.1781 -0.133578,-0.31168 0,-0.1781 0.311682,-0.31168 0.489785,-0.26715 0.489785,-0.89052 0,-0.57883 -0.400733,-0.75694 -0.311682,-0.1781 -0.400734,-0.44526 -0.04453,-0.31168 0,-1.91461 0,-1.64746 -0.04453,-1.95914 -0.04453,-0.35621 -0.445259,-0.53431 -0.356207,-0.22263 -0.311681,-1.24673 0.04453,-0.75694 -0.08905,-0.93504 -0.133578,-0.17811 -0.267156,-0.17811 -0.08905,0 -0.489785,-0.40073 -0.400733,-0.44526 -0.578837,-0.57884 -0.178104,-0.1781 -0.178104,-0.62336 0,-0.66789 -0.445259,-0.89052 -0.222629,-0.0891 -0.445259,-0.44526 l -0.267156,-0.31168 -1.691985,-0.0445 -1.691985,0 -0.133578,-0.22263 z" /><path
       id="path42"
       style="font-style:normal;font-variant:normal;font-weight:normal;font-stretch:normal;font-size:45.59454727px;font-family:Oradano-mincho-GSRR;-inkscape-font-specification:Oradano-mincho-GSRR"
       d="m 63.72528,171.8971 q 0.133578,-0.22263 0.267156,-0.40073 0.178103,-0.1781 0.222629,-0.1781 0.178104,0 0.534311,0.53431 l 0.178104,0.31168 1.291252,0 q 0.97957,0 1.157674,0.0445 0.178104,0 0.267156,0.13358 0.133577,0.22263 0.445259,0.53431 0.356207,0.31168 0.489785,0.57884 0.22263,0.35621 0.445259,0.35621 0.267156,-0.0445 0.489785,-0.40074 0.133578,-0.31168 0.356208,-0.44525 0.222629,-0.13358 0.400733,-0.44526 l 0.22263,-0.31169 0.935044,0 0.890519,-0.0445 0.267155,-0.35621 q 0.267156,-0.44526 0.445259,-0.35621 0.22263,0.0445 0.578837,0.62337 0.08905,0.13357 0.534312,0.13357 0.489785,-0.0445 0.623363,0.13358 0.178103,0.13358 0.178103,0.62337 0,0.48978 0.133578,0.66788 0.178104,0.13358 0.267156,0.13358 0.400733,0 0.356207,0.75694 0,0.40074 0.04453,0.53431 0.08905,0.0891 0.400733,0.31169 0.534311,0.31168 0.08905,0.62336 -0.400733,0.26715 -0.489785,0.44526 -0.08905,0.13358 -0.04453,0.48978 0.04453,0.31168 -0.04453,0.44526 -0.08905,0.089 -0.489785,0.35621 -0.22263,0.13358 -0.267156,0.22263 0,0.0891 0,0.48978 0,0.57884 -0.178103,0.66789 -0.267156,0.13358 -0.712415,0.71242 -0.311682,0.40073 -0.667889,-0.22263 -0.178104,-0.31168 -0.400733,-0.40074 -0.178104,-0.13357 -0.311682,-0.3562 -0.08905,-0.26716 -0.400733,-0.40074 -0.267156,-0.1781 -0.445259,-0.44526 -0.133578,-0.31168 -0.400734,-0.40073 -0.222629,-0.13358 -0.311681,-0.35621 -0.267156,-0.48978 -0.935045,-0.48978 -0.400733,0 -0.667889,0.22263 l -0.222629,0.26715 0,2.80514 q 0.04453,2.80513 -0.04453,2.93871 -0.04453,0.0891 -0.311682,0.22263 -0.267155,0.089 -0.356207,0.22263 -0.08905,0.13358 -0.08905,1.87009 l 0,1.69198 0.22263,0.17811 q 0.400733,0.31168 0.756941,0.75694 0.222629,0.22263 0.667888,0.22263 0.356208,0 0.44526,0.0445 0.08905,0.0445 0.267155,0.26716 0.22263,0.3562 0.445259,0.44526 0.267156,0.13357 0.311682,0.3562 0.04453,0.17811 0.08905,0.80147 0,0.75694 -0.178104,0.97957 -0.178104,0.1781 -0.267155,0.1781 -0.08905,0 -0.356208,0.31169 -0.22263,0.3562 -0.489785,0.40073 -0.578837,0.13358 -0.756941,-0.0891 -0.133578,-0.17811 -0.356207,-0.44526 l -0.267156,-0.26716 -2.849659,0 q -2.849659,0 -2.983237,-0.13358 -0.133578,-0.13357 -0.133578,-1.11314 0,-0.66789 0.133578,-0.80147 0.133578,-0.1781 0.22263,-0.1781 0.133577,0 0.356207,-0.35621 0.267156,-0.35621 0.534311,-0.48979 0.267156,-0.13357 0.311682,-0.40073 0.08905,-0.31168 0.08905,-6.27815 l 0,-5.96648 -0.311682,-0.1781 q -0.311681,-0.22263 -0.534311,-0.53431 -0.133578,-0.22263 -0.267156,-0.26716 -0.08905,-0.0445 -0.489785,-0.089 -0.400733,0 -0.489785,-0.0445 -0.08905,-0.0445 -0.267155,-0.31168 -0.22263,-0.35621 -0.489786,-0.48978 -0.267155,-0.13358 -0.356207,-0.48979 -0.04453,-0.40073 0.178104,-0.71241 0.133577,-0.22263 1.068622,-0.17811 l 0.935044,0.0445 0.08905,-0.26716 z" /><path
       id="path44"
       style="font-style:normal;font-variant:normal;font-weight:normal;font-stretch:normal;font-size:45.59454727px;font-family:Oradano-mincho-GSRR;-inkscape-font-specification:Oradano-mincho-GSRR"
       d="m 84.251731,172.29784 q 0.267155,-0.17811 0.534311,-0.53431 0.267156,-0.40074 0.534311,-0.31169 0.311682,0.0445 3.6066,0.0445 l 3.294918,0 0.178104,0.1781 q 0.445259,0.53431 0.578837,0.62337 0.133578,0.0445 0.445259,0 0.400734,-0.0445 0.578837,0.1781 0.178104,0.22263 0.400734,0.44526 0.222629,0.22263 0.356207,0.35621 0.133578,0.13357 0.578837,0.53431 l 0.400734,0.44526 -0.04453,2.5825 q 0,1.69199 -0.04453,5.12048 0,3.4285 0,3.65113 0,0.0891 0.178103,0.22263 0.489786,0.31168 0.801467,-0.31168 0.133578,-0.31169 0.400733,-0.44526 0.534312,-0.26716 0.44526,-0.80147 -0.08905,-0.48978 0.222629,-0.66789 0.08905,-0.0445 0.534311,-0.0445 0.400734,0 0.489786,0.13357 0.133577,0.0891 0.133577,0.57884 0,0.44526 0.178104,0.66789 0.22263,0.1781 0.311682,0.1781 0.133577,0 0.267155,0.26716 0.133578,0.22263 0.133578,0.48978 0,0.22263 -0.445259,0.66789 -0.44526,0.40074 -0.44526,0.846 0,0.40073 -0.178103,0.62336 -0.178104,0.1781 -0.267156,0.1781 -0.400733,0 -0.400733,0.80147 0,0.48978 -0.311682,0.71241 -0.267155,0.17811 -0.445259,0.44526 -0.133578,0.26716 -0.400733,0.40074 -0.22263,0.089 -0.44526,0.40073 l -0.178103,0.35621 -1.291252,0 -1.291252,0 -0.22263,-0.35621 q -0.267155,-0.31168 -0.489785,-0.44526 -0.222629,-0.1781 -0.400733,-0.44526 -0.178104,-0.26716 -0.311682,-0.31168 -0.08905,-0.0445 -0.97957,-0.0445 l -0.845992,0 -0.22263,0.22263 q -0.22263,0.26716 -0.356207,0.44526 -0.08905,0.13358 -0.534312,0.13358 -0.356207,0 -0.489785,0.0445 -0.08905,0.0445 -0.311681,0.31168 l -0.311682,0.40073 -2.092718,-0.0445 q -2.048193,0 -2.18177,-0.1781 -0.08905,-0.1781 -1.291252,-1.3803 l -1.157674,-1.15768 0,-2.4044 q 0,-2.35987 0.178103,-2.53797 0.178104,-0.17811 0.267156,-0.22263 0.133578,-0.0891 0.311681,-0.31169 0.22263,-0.26715 0.44526,-0.40073 0.222629,-0.13358 0.400733,-0.44526 0.22263,-0.31168 0.667889,-0.31168 0.623363,0 0.935044,-0.44526 0.178104,-0.26715 0.356208,-0.35621 0.178103,-0.089 0.445259,-0.44526 l 0.267155,-0.3562 0.890519,0 0.890518,0 0.178104,-0.26716 q 0.22263,-0.26715 0.311682,-0.40073 0.133577,-0.13358 1.424829,-0.13358 1.024096,0 1.2022,-0.0445 0.22263,-0.089 0.489785,-0.40073 0.178104,-0.26715 0.356208,-0.35621 0.267155,-0.0891 0.356207,-0.40073 0.08905,-0.35621 0.08905,-1.69198 0,-1.69199 -0.04453,-1.78104 -0.04453,-0.13358 -0.311681,-0.22263 -0.267156,-0.13358 -0.489786,-0.44526 -0.178103,-0.31168 -0.311681,-0.35621 -0.08905,-0.0445 -1.736511,-0.089 l -1.691985,-0.0445 -0.178104,0.22263 q -0.178104,0.13358 -0.22263,0.35621 0,0.22263 0.04453,1.64746 l 0,1.42483 -0.623363,0.62336 q -0.578837,0.57884 -0.667888,0.57884 -0.08905,0 -0.311682,0.40073 l -0.267156,0.35621 -0.489785,0 q -0.400733,0 -0.489785,-0.0445 -0.08905,-0.0445 -0.222629,-0.31168 -0.22263,-0.31168 -0.44526,-0.40073 -0.178103,-0.0891 -0.400733,-0.35621 -0.178104,-0.31168 -0.445259,-0.44526 -0.22263,-0.13357 -0.311682,-0.26715 -0.04453,-0.13358 0,-1.73651 l 0.04453,-1.60294 0.267156,-0.1781 q 0.267155,-0.1781 0.489785,-0.48979 0.222629,-0.31168 0.400733,-0.40073 0.22263,-0.0891 0.356208,-0.31168 0.133577,-0.26716 0.400733,-0.40073 z m 6.678889,8.94971 q -0.22263,-0.35621 -0.44526,-0.35621 -0.178103,0 -0.400733,0 -0.400733,-0.0891 -0.801467,0.40073 l -0.267155,0.40074 -0.489785,0 -0.534311,0 -0.267156,0.40073 q -0.311681,0.40073 -0.445259,0.44526 -0.133578,0.0445 -0.356208,0.35621 -0.178103,0.26715 -0.400733,0.3562 -0.311681,0.17811 -0.400733,0.53432 -0.04453,0.3562 -0.08905,2.00366 0,1.64746 0.04453,1.95914 0.08905,0.31168 0.400733,0.48979 0.22263,0.089 0.400733,0.40073 0.267156,0.53431 0.667889,0.40073 0.08905,-0.0445 0.311682,-0.40073 l 0.178104,-0.35621 0.534311,0 0.534311,-0.0445 0.267155,-0.40074 0.311682,-0.40073 0.489785,0 q 0.534311,0 0.667889,-0.13358 0.178104,-0.13357 0.178104,-0.62336 0,-0.62336 0.400733,-0.80147 0.267155,-0.13357 0.356207,-0.31168 0.08905,-0.22263 0.133578,-1.78103 0,-1.33578 -0.08905,-1.60294 -0.04453,-0.31168 -0.356207,-0.48978 -0.267156,-0.0891 -0.534311,-0.44526 z" /><path
       id="path46"
       style="font-style:normal;font-variant:normal;font-weight:normal;font-stretch:normal;font-size:45.59454727px;font-family:Oradano-mincho-GSRR;-inkscape-font-specification:Oradano-mincho-GSRR"
       d="m 113.54979,160.67657 q 0,-0.0445 0.22262,-0.31168 0.26716,-0.26716 0.53432,-0.22263 0.31168,0.0445 1.64746,0.0445 l 1.29125,0 0.31168,0.40074 0.26715,0.40073 0.48979,0 q 0.48978,0 0.62336,0.0891 0.13358,0.13358 0.13358,1.42483 0,1.24673 -0.0891,11.39864 -0.0445,7.34678 0,7.48036 0.0891,0.13357 0.40073,0.31168 0.31168,0.13357 0.31168,0.3562 0.0445,0.17811 -0.22263,0.35621 -0.44526,0.22263 -0.53431,0.53431 -0.0445,0.31168 -0.0445,2.35988 0,1.87009 0,2.18177 0.0445,0.31168 0.1781,0.44526 0.53431,0.44526 0.89052,0.89051 0.13358,0.13358 0.62336,0.13358 0.35621,0 0.44526,0.0445 0.0891,0.0445 0.26716,0.31168 0.26715,0.40073 0.44526,0.44526 0.44525,0.1781 0.3562,1.24672 -0.0445,0.75695 -0.1781,0.846 -0.13358,0.13358 -2.53798,0.0891 l -2.44892,0 -0.17811,-0.22263 q -0.31168,-0.44526 -0.44526,-0.48979 -0.13358,-0.0891 -0.53431,-0.0891 l -0.44526,0 -0.22263,-0.3562 q -0.53431,-0.89052 -0.97957,-0.0445 -0.1781,0.31168 -0.40073,0.40073 -0.1781,0.0891 -0.40073,0.44526 l -0.26716,0.35621 -2.35987,0 q -2.4044,0 -2.53798,-0.0445 -0.13358,-0.0445 -0.31168,-0.3562 -0.13358,-0.31169 -0.40074,-0.44526 -0.22263,-0.13358 -0.3562,-0.35621 -0.13358,-0.26716 -0.40074,-0.40073 -0.26715,-0.17811 -0.48978,-0.48979 -0.17811,-0.31168 -0.40074,-0.35621 -0.3562,-0.13357 -0.26715,-0.75694 0.0445,-0.31168 -0.0445,-0.40073 -0.0891,-0.13358 -0.62336,-0.66789 -0.22263,-0.13358 -0.1781,-0.53431 0.0891,-0.40073 -0.17811,-0.62336 -0.22263,-0.22263 -0.40073,-0.35621 l -0.1781,-0.089 0,-4.05186 q 0.0445,-3.25039 0.0891,-3.74018 0.0445,-0.53431 0.3562,-0.62336 0.13358,-0.0445 0.31169,-0.35621 0.22263,-0.31168 0.48978,-0.44526 0.48979,-0.22263 0.44526,-1.29125 -0.0891,-0.71242 0.13358,-0.89052 0.22263,-0.1781 0.89052,-0.84599 0.66789,-0.71242 0.75694,-0.75694 0.0891,-0.089 0.48978,-0.53431 0.31168,-0.31169 0.40074,-0.35621 0.13357,-0.0445 0.48978,-0.0445 0.44526,0 0.53431,-0.13358 0.13358,-0.1781 0.35621,-0.40073 l 0.22263,-0.26715 1.24673,0.0445 q 0.93504,0 1.11314,0.0445 0.17811,0.0445 0.26716,0.1781 0.1781,0.26716 0.71241,0.71242 0.22263,0.22263 0.22263,0.57883 0,0.31168 -0.13357,0.53431 -0.13358,0.17811 -0.62337,0.13358 -0.44526,-0.0445 -0.62336,0.13358 -0.44526,0.48979 -0.57884,0.57884 -0.13358,0.0891 -0.48978,0.0891 -0.44526,0 -0.66789,0.26715 -0.22263,0.22263 -0.22263,0.31169 0,0.0445 -0.26716,0.22263 -0.22263,0.13357 -0.48978,0.48978 -0.22263,0.31168 -0.35621,0.31168 -0.0891,0 -0.22263,0.17811 -0.13358,0.13357 -0.1781,0.84599 -0.0445,0.66789 -0.0445,4.58617 -0.0891,5.20953 0,5.38764 0.13358,0.1781 0.35621,0.31168 0.22263,0.089 0.44526,0.48978 0.26715,0.35621 0.35621,0.35621 0.13357,0 0.40073,0.40073 0.31168,0.35621 0.44526,0.40074 0.13358,0.0445 0.40073,0.40073 0.31168,0.44526 1.0241,0.44526 0.35621,0 0.80146,-0.57884 0.13358,-0.22263 0.57884,-0.22263 0.48979,0 0.71242,-0.22263 0.26715,-0.22263 0.22263,-0.62336 -0.0445,-0.40073 0.13357,-0.57884 0.17811,-0.1781 0.44526,-0.40073 l 0.26716,-0.26716 -0.0445,-1.15767 q 0,-1.2022 0.0445,-1.33578 0.0891,-0.13358 0.35621,-0.22263 0.26715,-0.13358 0.3562,-0.26715 0.0891,-0.17811 0.0445,-1.91462 l 0,-1.73651 -0.35621,-0.26715 -0.35621,-0.22263 0,-2.13725 q 0,-2.09272 0.0445,-7.65846 l 0,-5.61026 -0.22263,-0.17811 q -0.48978,-0.35621 -0.75694,-0.75694 -0.1781,-0.22263 -1.06862,-0.22263 -0.84599,0 -1.0241,-0.13358 -0.13358,-0.13357 -0.13358,-0.93504 0,-0.71242 0.0891,-0.89052 0.13357,-0.22263 0.48978,-0.22263 0.31168,0 0.62336,-0.089 0.31169,-0.0891 0.31169,-0.22263 z" /><path
       id="path48"
       style="font-style:normal;font-variant:normal;font-weight:normal;font-stretch:normal;font-size:45.59454727px;font-family:Oradano-mincho-GSRR;-inkscape-font-specification:Oradano-mincho-GSRR"
       d="m 128.77766,172.29784 q 0.26715,-0.17811 0.53431,-0.53431 0.26715,-0.40074 0.53431,-0.31169 0.31168,0.0445 3.6066,0.0445 l 3.29492,0 0.1781,0.1781 q 0.44526,0.53431 0.57884,0.62337 0.13357,0.0445 0.44526,0 0.40073,-0.0445 0.57883,0.1781 0.17811,0.22263 0.40074,0.44526 0.22263,0.22263 0.3562,0.35621 0.13358,0.13357 0.57884,0.53431 l 0.40073,0.44526 -0.0445,2.5825 q 0,1.69199 -0.0445,5.12048 0,3.4285 0,3.65113 0,0.0891 0.17811,0.22263 0.48978,0.31168 0.80146,-0.31168 0.13358,-0.31169 0.40074,-0.44526 0.53431,-0.26716 0.44526,-0.80147 -0.0891,-0.48978 0.22262,-0.66789 0.0891,-0.0445 0.53432,-0.0445 0.40073,0 0.48978,0.13357 0.13358,0.0891 0.13358,0.57884 0,0.44526 0.1781,0.66789 0.22263,0.1781 0.31168,0.1781 0.13358,0 0.26716,0.26716 0.13358,0.22263 0.13358,0.48978 0,0.22263 -0.44526,0.66789 -0.44526,0.40074 -0.44526,0.846 0,0.40073 -0.1781,0.62336 -0.17811,0.1781 -0.26716,0.1781 -0.40073,0 -0.40073,0.80147 0,0.48978 -0.31169,0.71241 -0.26715,0.17811 -0.44525,0.44526 -0.13358,0.26716 -0.40074,0.40074 -0.22263,0.089 -0.44526,0.40073 l -0.1781,0.35621 -1.29125,0 -1.29125,0 -0.22263,-0.35621 q -0.26716,-0.31168 -0.48979,-0.44526 -0.22263,-0.1781 -0.40073,-0.44526 -0.17811,-0.26716 -0.31168,-0.31168 -0.0891,-0.0445 -0.97957,-0.0445 l -0.846,0 -0.22263,0.22263 q -0.22263,0.26716 -0.3562,0.44526 -0.0891,0.13358 -0.53431,0.13358 -0.35621,0 -0.48979,0.0445 -0.089,0.0445 -0.31168,0.31168 l -0.31168,0.40073 -2.09272,-0.0445 q -2.04819,0 -2.18177,-0.1781 -0.089,-0.1781 -1.29125,-1.3803 l -1.15768,-1.15768 0,-2.4044 q 0,-2.35987 0.17811,-2.53797 0.1781,-0.17811 0.26715,-0.22263 0.13358,-0.0891 0.31168,-0.31169 0.22263,-0.26715 0.44526,-0.40073 0.22263,-0.13358 0.40074,-0.44526 0.22263,-0.31168 0.66788,-0.31168 0.62337,0 0.93505,-0.44526 0.1781,-0.26715 0.35621,-0.35621 0.1781,-0.089 0.44526,-0.44526 l 0.26715,-0.3562 0.89052,0 0.89052,0 0.1781,-0.26716 q 0.22263,-0.26715 0.31168,-0.40073 0.13358,-0.13358 1.42483,-0.13358 1.0241,0 1.2022,-0.0445 0.22263,-0.089 0.48979,-0.40073 0.1781,-0.26715 0.35621,-0.35621 0.26715,-0.0891 0.3562,-0.40073 0.0891,-0.35621 0.0891,-1.69198 0,-1.69199 -0.0445,-1.78104 -0.0445,-0.13358 -0.31168,-0.22263 -0.26716,-0.13358 -0.48979,-0.44526 -0.1781,-0.31168 -0.31168,-0.35621 -0.089,-0.0445 -1.73651,-0.089 l -1.69199,-0.0445 -0.1781,0.22263 q -0.1781,0.13358 -0.22263,0.35621 0,0.22263 0.0445,1.64746 l 0,1.42483 -0.62337,0.62336 q -0.57883,0.57884 -0.66788,0.57884 -0.0891,0 -0.31169,0.40073 l -0.26715,0.35621 -0.48979,0 q -0.40073,0 -0.48978,-0.0445 -0.0891,-0.0445 -0.22263,-0.31168 -0.22263,-0.31168 -0.44526,-0.40073 -0.1781,-0.0891 -0.40073,-0.35621 -0.17811,-0.31168 -0.44526,-0.44526 -0.22263,-0.13357 -0.31169,-0.26715 -0.0445,-0.13358 0,-1.73651 l 0.0445,-1.60294 0.26716,-0.1781 q 0.26715,-0.1781 0.48978,-0.48979 0.22263,-0.31168 0.40073,-0.40073 0.22263,-0.0891 0.35621,-0.31168 0.13358,-0.26716 0.40074,-0.40073 z m 6.67888,8.94971 q -0.22263,-0.35621 -0.44525,-0.35621 -0.17811,0 -0.40074,0 -0.40073,-0.0891 -0.80146,0.40073 l -0.26716,0.40074 -0.48979,0 -0.53431,0 -0.26715,0.40073 q -0.31168,0.40073 -0.44526,0.44526 -0.13358,0.0445 -0.35621,0.35621 -0.1781,0.26715 -0.40073,0.3562 -0.31168,0.17811 -0.40074,0.53432 -0.0445,0.3562 -0.089,2.00366 0,1.64746 0.0445,1.95914 0.0891,0.31168 0.40073,0.48979 0.22263,0.089 0.40074,0.40073 0.26715,0.53431 0.66788,0.40073 0.0891,-0.0445 0.31169,-0.40073 l 0.1781,-0.35621 0.53431,0 0.53431,-0.0445 0.26716,-0.40074 0.31168,-0.40073 0.48978,0 q 0.53431,0 0.66789,-0.13358 0.17811,-0.13357 0.17811,-0.62336 0,-0.62336 0.40073,-0.80147 0.26716,-0.13357 0.35621,-0.31168 0.0891,-0.22263 0.13357,-1.78103 0,-1.33578 -0.0891,-1.60294 -0.0445,-0.31168 -0.3562,-0.48978 -0.26716,-0.0891 -0.53432,-0.44526 z" /><path
       id="path50"
       style="font-style:normal;font-variant:normal;font-weight:normal;font-stretch:normal;font-size:45.59454727px;font-family:Oradano-mincho-GSRR;-inkscape-font-specification:Oradano-mincho-GSRR"
       d="m 147.03328,172.34236 q 0.0891,-0.13358 2.53798,-0.13358 2.04819,0 2.27082,0.0445 0.22263,0.0445 0.62336,0.53431 0.22263,0.22263 1.06863,0.26716 0.89051,0 0.97957,-0.0445 0.089,-0.0445 0.26715,-0.26715 0.1781,-0.26716 0.22263,-0.35621 0.089,-0.13358 2.93871,-0.13358 2.27082,0 2.62703,0.0891 0.40073,0.0445 0.57884,0.35621 0.0891,0.22263 0.31168,0.35621 0.26716,0.0891 0.44526,0.40073 0.22263,0.31168 0.35621,0.40073 0.1781,0.0445 0.44526,0.44526 0.31168,0.35621 0.40073,0.35621 0.13358,0 0.26715,0.22263 0.13358,0.1781 0.0891,1.11315 -0.0445,0.89052 -0.0445,5.16501 l 0,4.31901 0.1781,0.1781 q 0.17811,0.17811 0.26716,0.17811 0.089,0 0.22263,0.1781 0.13358,0.17811 0.089,0.97957 -0.0445,0.66789 0,0.89052 0.0891,0.22263 0.40073,0.35621 0.22263,0.089 0.40074,0.40073 0.22263,0.26716 0.40073,0.40073 0.44526,0.22263 0.44526,0.71242 0,0.40073 -0.1781,0.53431 -0.57884,0.48979 -0.80147,0.80147 -0.13358,0.13357 -0.44526,0.1781 -0.26715,0 -1.82556,0 -2.13725,-0.0445 -2.89419,-0.0445 l -0.75694,0 -0.1781,-0.3562 q -0.22263,-0.35621 -0.31168,-0.40074 -0.089,-0.0445 -0.57884,0 -0.48979,0.0445 -0.62336,-0.13357 -0.26716,-0.31169 0.26715,-0.57884 0.26716,-0.13358 0.44526,-0.40073 0.22263,-0.31169 0.31168,-0.31169 0.13358,0 0.31168,-0.1781 0.22263,-0.22263 0.22263,-0.57884 -0.0445,-0.48978 0,-0.57883 0.0445,-0.13358 0.31169,-0.26716 0.26715,-0.13358 0.40073,-0.26715 0.13358,-0.17811 0.13358,-7.88109 0.0445,-3.56208 -0.0445,-3.74018 -0.089,-0.1781 -0.31168,-0.26716 -0.22263,-0.089 -0.53431,-0.44526 l -0.26716,-0.3562 -1.2022,-0.0445 q -1.15767,0 -1.33577,0.0445 -0.17811,0.0445 -0.40074,0.3562 -0.22263,0.31169 -0.40073,0.40074 -0.17811,0.0891 -0.40073,0.40073 -0.17811,0.31168 -0.44526,0.40073 -0.53431,0.17811 -0.44526,1.29126 0.089,1.02409 -0.40074,1.11314 -0.31168,0.0891 -0.3562,0.75694 -0.0445,0.66789 -0.0891,4.58618 0,3.6066 0,4.27448 0.0445,0.62337 0.17811,0.75694 0.13358,0.17811 0.44526,0.22263 0.31168,0 0.53431,0 0.22263,0 0.44526,0.35621 0.26715,0.35621 0.3562,0.35621 0.13358,0 0.31169,0.22263 0.40073,0.53431 0,1.02409 l -0.17811,0.22263 -3.6066,0 q -3.56207,-0.0445 -3.74017,-0.1781 -0.17811,-0.13358 -0.17811,-0.89052 0,-1.02409 0.35621,-1.2022 0.22263,-0.089 0.40073,-0.3562 0.17811,-0.26716 0.44526,-0.44526 0.31168,-0.22263 0.35621,-0.26716 0.089,-0.0891 0.13358,-6.05553 0.0445,-6.011 0,-6.23363 -0.0891,-0.22262 -0.40074,-0.3562 -0.26715,-0.13358 -0.44526,-0.40074 -0.13357,-0.26715 -0.3562,-0.40073 -0.22263,-0.13358 -0.44526,-0.40073 -0.17811,-0.31168 -0.40074,-0.44526 -0.31168,-0.13358 -0.40073,-0.53431 -0.0445,-0.44526 0.22263,-0.71242 z" /><path
       id="path52"
       style="font-style:normal;font-variant:normal;font-weight:normal;font-stretch:normal;font-size:45.59454727px;font-family:Oradano-mincho-GSRR;-inkscape-font-specification:Oradano-mincho-GSRR"
       d="m 174.50578,172.03068 0.31168,-0.40073 2.84966,0.0445 q 2.09272,0.0445 2.49345,0.0891 0.40073,0 0.48979,0.13357 0.31168,0.44526 0.44526,0.53431 0.13357,0.0891 0.53431,0.0891 0.31168,0 0.40073,0.0445 0.13358,0.0445 0.26716,0.26716 0.26715,0.3562 0.48978,0.48978 0.22263,0.13358 0.40073,0.44526 0.17811,0.26716 0.31169,0.31168 0.1781,0.0445 0.44525,0.44526 0.31169,0.40074 0.40074,0.40074 0.13358,0 0.22263,0.1781 0.13358,0.13358 0.0891,1.29125 -0.0445,1.0241 0,1.29125 0.089,0.22263 0.44526,0.40074 0.31168,0.1781 0.35621,0.31168 0.0445,0.13358 0,1.29125 -0.0445,1.15767 0.13357,1.3803 0.17811,0.22263 0.26716,0.22263 0.13358,0 0.26716,0.17811 0.1781,0.13357 0.13357,0.97957 -0.0445,0.80146 -0.089,0.89052 -0.0445,0.0445 -0.35621,0.22263 -0.26715,0.13357 -0.3562,0.26715 -0.0445,0.13358 -0.0445,1.3803 0.0445,1.2022 -0.13358,1.33578 -0.1781,0.13358 -0.62336,0.57884 -0.40073,0.40073 -0.48979,0.40073 -0.0891,0 -0.26715,0.22263 -0.1781,0.17811 -0.13358,0.62337 0.0891,0.44525 -0.089,0.62336 -0.1781,0.13358 -0.31168,0.13358 -0.0891,0 -0.35621,0.3562 -0.22263,0.35621 -0.40073,0.40074 -0.13358,0.0445 -0.35621,0.40073 -0.22263,0.26716 -0.31168,0.31168 -0.089,0.0445 -0.44526,0.0445 -0.35621,0 -0.53431,0.13358 -0.17811,0.089 -0.48979,0.48978 -0.13357,0.1781 -2.18177,0.1781 l -2.04819,0 -0.31168,-0.40073 -0.35621,-0.40073 -0.84599,0 -0.89052,0 -0.26716,-0.40074 -0.31168,-0.40073 -0.44526,0 q -0.48978,0 -0.66789,-0.13358 -0.13357,-0.1781 -0.13357,-0.62336 0,-0.35621 -0.089,-0.48978 -0.0891,-0.13358 -0.48979,-0.48979 -0.22263,-0.1781 -0.22263,-0.62336 0,-0.846 -0.35621,-0.846 -0.13357,0 -0.31168,-0.13357 -0.13358,-0.17811 -0.089,-1.06863 0,-0.71241 -0.0891,-0.84599 -0.0445,-0.1781 -0.53431,-0.48978 l -0.17811,-0.13358 0.0445,-2.84966 q 0,-2.84966 0.0445,-2.93871 0.0445,-0.0891 0.31169,-0.17811 0.31168,-0.13357 0.3562,-0.3562 0.0891,-0.22263 0.0891,-0.846 -0.0891,-0.97957 0.31168,-1.15767 0.48978,-0.22263 0.48978,-0.89052 0.0445,-0.48978 0.31168,-0.66789 0.26716,-0.1781 0.48979,-0.48978 0.22263,-0.35621 0.35621,-0.40074 0.1781,-0.0445 0.44526,-0.40073 l 0.22263,-0.35621 0.53431,0 0.48978,0 0.35621,-0.40073 z m 5.38764,2.04819 -0.22263,-0.22263 -1.64746,0.0445 q -1.64746,0 -1.78104,0.0445 -0.089,0 -0.31168,0.3562 l -0.26716,0.35621 -0.53431,0 q -0.53431,0 -0.71241,0.1781 -0.17811,0.17811 -0.13358,0.97957 0.0445,0.75695 0,0.93505 -0.0445,0.13358 -0.35621,0.31168 -0.31168,0.1781 -0.40073,0.40073 -0.089,0.17811 -0.089,4.22997 0,4.00733 0.1781,4.18543 0.1781,0.13358 0.26716,0.13358 0.0891,0 0.22263,0.17811 0.1781,0.13357 0.13357,0.89051 -0.089,1.06863 0.35621,1.29126 0.26716,0.13357 0.48979,0.48978 l 0.1781,0.31168 1.33578,0.0445 q 1.33578,0.089 2.13724,0.089 l 0.80147,0 0.26715,-0.31168 q 0.26716,-0.26716 0.26716,-0.31168 0,-0.089 0.26716,-0.22263 0.31168,-0.089 0.40073,-0.31168 0.0891,-0.26716 0.0445,-0.93505 -0.0445,-1.11315 0.31169,-1.11315 0.13357,0 0.3562,-0.22263 l 0.22263,-0.26715 -0.0445,-0.80147 q -0.0445,-0.66789 0,-0.75694 0.0445,-0.13358 0.57883,-0.53431 0.22263,-0.1781 0.22263,-1.06862 0.0445,-0.89052 0,-1.0241 -0.0445,-0.13358 -0.3562,-0.26715 -0.31169,-0.17811 -0.40074,-0.26716 -0.0445,-0.0891 -0.0445,-2.04819 0.0445,-2.00367 -0.0445,-2.13725 -0.089,-0.1781 -0.40073,-0.40073 l -0.31168,-0.1781 0,-0.57884 q 0,-0.53431 -0.22263,-0.71242 -0.17811,-0.1781 -0.35621,-0.22263 -0.13358,-0.0445 -0.1781,-0.1781 -0.0445,-0.13358 -0.22263,-0.35621 z" /><path
       id="path54"
       style="font-style:normal;font-variant:normal;font-weight:normal;font-stretch:normal;font-size:45.59454727px;font-family:Oradano-mincho-GSRR;-inkscape-font-specification:Oradano-mincho-GSRR"
       d="m 41.284214,254.6708 0,-0.48979 -0.935044,0 0,-0.57883 -0.311682,0 0,-1.38031 0.311682,0 0,-0.44526 1.246726,0 0,-0.80146 0.578837,-0.13358 0,-0.44526 0.311681,0 0,-0.62336 0.311682,0 0,-0.44526 1.380303,-0.17811 1.068622,0.17811 0,-0.48979 0.578837,-0.13358 0,-0.44526 0.311682,0 0,-0.31168 0.311681,0 0,-0.31168 0.311682,0 0,-0.31168 0.311681,0 0,-0.31168 0.623363,0 0,-0.44526 0.267156,0 0,-0.31168 0.311681,0 0,-0.44526 0.311682,0 0,-0.62336 0.311681,0 0,-0.31169 0.623363,0 0,-0.26715 0.311682,0 0,-0.62336 0.267155,0 0,-0.62337 0.311682,0 0,-1.06862 -0.311682,0 0,-0.31168 0.311682,0 0,-0.44526 0.935044,-0.31168 0,-0.31168 0.578837,-0.13358 0,-1.2022 0.311682,0 0,-1.69199 0.311681,0 0,-3.51754 -0.133578,0 0.133578,0 0,-1.2022 -0.133578,0 0,-0.48979 -0.178103,0 0,-1.51388 0.311681,0 0,-0.62336 -0.311681,0 0,-4.54165 0.311681,0 0,-0.62336 0.311682,0 0,-2.89419 -0.311682,0 0,-0.44526 -0.311681,0 0,-7.16867 0.311681,0 0,-0.31168 3.205867,-0.1781 0,0.31168 1.2022,0.31168 0.623363,-0.13358 0.311681,0.13358 0,0.62336 2.448926,0.31168 1.380304,-0.31168 0,-0.31168 0.267155,0 0,-0.44526 0.935045,-0.1781 0,-0.31168 q 0.623363,-0.26716 1.291251,-0.26716 0.712415,0 1.291252,0 l 0,0.26716 0.311682,0 0,0.48978 0.311681,0 0,0.31168 0.311682,0 0,0.57884 0.890518,0 0,0.48978 0.311682,0 0,0.89052 0.311681,0 0,0.31168 0.311682,0 0,0.44526 -0.311682,0 0,0.31169 -0.311681,0 0,21.06076 0.311681,0 0,0.75694 0.311682,0 0,0.57884 0.311681,0 0,0.48978 0.311682,0 0,1.82556 -0.311682,0 0,0.44526 0.311682,0 0,0.31168 -0.311682,0 0,0.44526 -0.623363,0.17811 0,0.89052 0.311682,0 0,0.75694 0.311681,0 0,0.48978 0.311682,0 0,0.89052 -0.935045,0.31168 0,0.75694 -0.311681,0 0,0.75694 -0.311682,0 0,0.48979 -0.267155,0 0,0.26715 -0.311682,0 0,1.38031 -0.311681,0 0,0.31168 -0.623363,0.1781 0,0.26716 -3.82923,0.1781 -0.267155,-0.1781 0,-0.26716 -0.311682,0 0,-1.24672 -0.311681,0 0,-0.31168 -0.311682,0 0,-0.57884 -0.623363,-0.17811 0,-0.44525 -0.267155,0 0,-0.31169 -0.311682,0 0,-0.44526 -0.935044,-0.1781 0,-0.75694 -0.133578,0 0.133578,0 0,-0.62336 2.448926,-0.44526 0,-0.31168 0.890518,-0.26716 0,-0.48978 0.311682,0 0,-0.57884 0.935044,-0.31168 0,-7.16868 -0.311681,0 0,-0.31168 -1.959141,-0.31168 0,0.31168 -4.58617,0.13358 0,1.06862 -0.311682,0 0,0.93505 -0.311681,0 0,0.31168 -0.311682,0 0,2.13724 -0.311681,0 0,1.06862 -0.890519,0.26716 0,1.24673 -0.311681,0 0,0.44526 -0.311682,0 0,0.93504 -0.311681,0 0,0.31168 -0.311682,0 0,0.26716 -0.267155,0 0,0.62336 -0.311682,0 0,0.62336 -0.311681,0 0,0.57884 -0.623363,0 0,0.31168 -0.311682,0 0,0.48979 -0.311681,0 0,0.26715 -0.578837,0.17811 0,0.31168 -1.825563,0.44526 0,0.44526 -0.311681,0 0,0.31168 -0.623363,0 0,0.44526 -0.311682,0 0,0.48978 -0.311681,0 0,0.31168 -1.2022,0.13358 0,0.31168 -0.311682,0 0,0.31168 -0.311681,0 0,0.57884 -2.137245,0.1781 0,0.57884 -0.267155,0 0,0.31168 -1.380304,0.48979 z m -4.58617,-8.72708 -0.623363,-0.26716 0,-0.31168 -1.2022,-0.31168 0,-1.24673 -0.311682,0 0,-7.30225 0.311682,0 0,-0.31168 0.890518,-0.13358 0,-0.93504 0.311682,0 0,-0.75694 -0.311682,0 0,-0.75694 0.311682,0 0,-0.93505 -0.133578,0 0,-0.13358 0.133578,0 0,-0.62336 -0.311682,0 0,-0.75694 0.311682,0 0,-0.89052 -0.133578,0 0.133578,0 0,-0.62336 -0.311682,0 0,-5.20954 0.311682,0 0,-0.44525 -0.311682,0 0,-7.61394 0.623363,-0.13358 0,-0.31168 0.311682,0 0,-0.93504 q 0.623363,-0.31168 1.380303,-0.31168 0.756941,0 1.513882,0 l 0.311681,0.1781 0,0.31168 q 0.623363,0.13358 1.380304,0.13358 0.756941,0 1.380304,0.31168 l 0,0.31168 0.75694,0 0,-0.31168 0.890519,-0.31168 0,-0.44526 2.315348,-0.62336 1.2022,0.13358 0,0.31168 0.935044,0.31168 0,0.31168 0.267156,0 0,0.31168 0.311682,0 0,0.31168 0.311681,0 0,0.57884 0.311681,0 0,2.00367 -0.311681,0 0,0.31168 -0.623363,0 0,0.31168 -0.267156,0 0,4.71975 1.2022,0.13358 0,3.38397 0.311682,0 0,2.4044 -0.311682,0 0,0.48978 0.133578,0 0,0.13358 -0.133578,0 0,0.44526 0.311682,0 0,2.13724 -0.311682,0 0,0.62337 0.311682,0 0,4.40806 -0.311682,0 0,0.48979 0.311682,0 0,0.26715 -0.311682,0 0,0.31168 -1.2022,0.17811 0,0.31168 -1.246725,0.26715 0,0.31169 q -0.623363,0.31168 -1.291252,0.31168 -0.667889,0 -1.291252,0 l -0.311682,-0.13358 0,-2.31535 -0.311681,0 0,-0.75694 -0.311681,0 0,-0.44526 -0.267156,0 0,-0.31168 -1.246726,0 -0.445259,0.13358 0,0.48978 -0.935045,0.13358 0,0.1781 -0.890518,0 0,0.89052 -0.311682,0 0,0.31168 -0.311681,0 0,6.10006 -0.311682,0 0,0.44526 -2.582503,0.75694 z m 7.613933,-10.8198 0,-1.51388 0.311681,0 0,-0.44526 -0.311681,0 0,-1.82557 0.178104,0 0,-0.31168 -0.178104,0 0,-1.55841 0.178104,0 0,-0.26715 -0.178104,0 0,-0.48979 -1.825563,-0.26715 0,-0.48979 -0.623363,-0.13358 0,-1.06862 -0.133578,0 0,-0.1781 0.133578,0 0,-1.06862 1.558407,-0.57884 0,-0.31168 0.133578,0 0,0.13358 0.756941,0 0,-4.71975 -0.133578,0 0.133578,0 0,-1.2022 -0.311681,0 0,-0.31168 -2.716082,0 -0.489785,0.13357 0,0.17811 -0.133578,0 0,-0.17811 -0.623363,0 -0.756941,0.17811 0,0.44526 0.311682,0 0,0.62336 -0.311682,0 0,2.13724 0.311682,0 0,0.44526 -0.311682,0 0,1.51389 0.311682,0 0,0.93504 0.311681,0 0,0.31168 0.311682,0 0,1.51388 -0.311682,0 0,0.89052 -0.311681,0 0,1.06862 -0.133578,0 0,0.31168 0.133578,0 0,4.4526 0.311681,0 0,0.44526 0.311682,0 0,1.2022 0.311681,0 0,0.31168 3.027763,0 0.756941,-0.31168 z m 13.135148,0 0,-0.13358 0.445259,0 2.894185,0.13358 0,-0.31168 0.44526,0 0,0.31168 0.935044,0 0.756941,-0.13358 0,-0.44526 0.311681,0 0,-4.27449 -0.311681,0 0,-0.62336 0.311681,0 0,-0.75694 -0.311681,0 0,-0.44526 -1.2022,-0.17811 0,-0.44526 -0.935045,-0.1781 0,-0.26715 -0.311681,0 0,-0.31169 -1.825563,-0.31168 -0.890519,0.13358 -0.801466,-0.13358 0,0.44526 -0.267156,0 0,6.72342 0.267156,0 0,1.2022 0.489785,0 z m -10.686222,-7.16868 0,-0.57883 0.311681,0 0,-1.55841 -0.311681,0 0,-0.89052 -0.445259,0 0,3.02776 0.445259,0 z m 15.227866,-2.27082 0,-0.31168 0.311682,0 0,-0.31168 0.623363,0 0,-6.10005 -0.311682,0 0,-0.31169 -0.623363,-0.13357 0,-0.31168 -1.2022,-0.13358 -1.2022,0.13358 -2.137244,-0.13358 -0.756941,0.26715 0,6.10005 q 0.756941,0 1.558408,0 0.845992,0 1.469355,0.31169 l 0,0.48978 0.623363,0 0.890519,-0.1781 0,0.44526 0.75694,0.1781 z" /><path
       id="path56"
       style="font-style:normal;font-variant:normal;font-weight:normal;font-stretch:normal;font-size:45.59454727px;font-family:Oradano-mincho-GSRR;-inkscape-font-specification:Oradano-mincho-GSRR"
       d="m 90.129154,254.13649 -2.448926,-0.31168 0,-0.17811 -0.311681,0 -0.890519,0.17811 -0.623363,-0.17811 0,-0.31168 -0.311681,0 0,-0.26716 -0.623363,0 0,-0.48978 -0.578837,-0.13358 0,-0.75694 -0.311682,0 0,-0.44526 0.311682,0 0,-0.62336 0.890518,-0.17811 0,-1.2022 0.311682,0 0,-1.06862 -0.311682,0 0,-4.71975 -0.311681,0 0,-0.31168 -3.027763,-0.13357 -0.623363,0.13357 0,-0.13357 -0.445259,0 0,0.13357 -0.178104,0 0,-0.13357 -3.027763,-0.17811 0,-0.31168 -0.311682,0 0,-3.33944 q 1.068623,0 2.137245,0 1.068622,0 2.003666,-0.31169 l 0,0.31169 0.578838,0 0,0.44526 1.246725,0.31168 0.890519,-0.13358 0.623363,0.13358 0.445259,-0.13358 0,-3.82923 -0.756941,0 0,0.44526 -0.890518,0.31168 0,1.06862 -2.137245,0 0,0.17811 -0.489785,0 -0.578837,-0.17811 0,-0.31168 -0.178103,0 0,-0.31168 -0.133578,0 0,-15.67313 0.311681,0 0,-0.31168 0.44526,0 0.623362,0.31168 0,0.31169 1.825563,0 0.890519,-0.17811 0.756941,0.17811 0,-0.48979 0.311681,0 0,-0.75694 -0.311681,0 0,-1.3803 q -0.756941,0.1781 -1.513882,0.0445 -0.756941,-0.1781 -1.513881,-0.35621 l -1.068622,0.31169 0,0.31168 -0.311682,0 0,0.31168 -0.133578,0 0,-0.13358 -1.246726,0 -1.2022,0.13358 -0.623363,-0.13358 0,-0.80147 -0.311681,0 0,-2.89418 0.935044,-0.26716 0,-0.31168 1.380304,-0.1781 0,0.48978 q 1.2022,-0.1781 2.092719,0.22263 0.935044,0.35621 2.003666,0.35621 l 0,-0.31168 0.311682,0 0,-3.20587 0.311681,0 0,-0.26715 5.03143,-0.17811 1.2022,0.31168 0,0.44526 -0.311682,0 0,1.06863 0.311682,0 0,2.89418 0.311681,0 0,0.31168 0.311682,0 0,0.44526 0.311681,0 0,0.31168 0.311682,0 0,0.48979 -0.311682,0 0,0.44526 -0.623363,0.13358 0,0.31168 -0.311681,0 0,0.44526 -0.311682,0 0,0.31168 -0.890518,0.1781 0,0.57884 -0.311682,0 0,1.69198 0.311682,0 0,0.31169 1.068622,0 0,-0.31169 0.311681,0 0,-0.31168 0.267156,0 0,-0.44526 2.938711,-0.31168 0.890518,0.17811 0,0.26715 1.513882,0.31168 0,0.62337 0.311681,0 0,0.31168 0.311682,0 0,3.33944 -0.311682,0 0,0.31168 -0.311681,0 0,0.31168 -0.311682,0 0,9.6176 -0.267155,0 0,0.57884 1.2022,0.1781 0,0.89052 2.270822,0.31168 0,-0.31168 0.311682,0 0,-1.3803 0.311681,0 0,-0.26716 0.311681,0 0,-16.78627 -0.623362,-0.1781 0,-0.57884 -0.311682,0 0,-0.31168 -2.137244,-0.17811 -0.890519,0.31169 -2.137244,-0.31169 0,-0.26715 -0.311682,0 0,-0.31168 -0.311681,0 0,-3.20587 4.452592,0 0.578837,0.31168 0,0.75694 0.623363,0 0.44526,-0.1781 0,-0.26716 3.829231,0 1.82556,0.57884 0.93505,-0.13358 0.57883,0.13358 1.69199,-0.31168 0,-0.44526 0.44526,0 1.06862,0.1781 0,-0.31168 0.31168,0 0,-0.31168 1.69199,-0.1781 0.57883,0.1781 0,0.31168 1.55841,0.31168 0,0.44526 1.51388,0.13358 0,3.96281 0.31168,0 0,0.75694 -0.31168,0 0,0.62336 -0.31168,0 0,0.44526 -0.31168,0 0,0.48979 -0.31168,0 0,1.06862 -0.31168,0 0,0.57884 0.1781,0 0,0.1781 -0.1781,0 0,1.51388 0.1781,0 -0.1781,0 0,3.82923 0.31168,0 0,0.57884 0.31168,0 0,0.31168 0.31168,0 0,0.31168 0.31168,0 0,1.2022 0.31168,0 0,0.93504 -0.1781,0 0,0.31169 0.1781,0 0,2.5825 -0.31168,0 0,1.06862 0.31168,0 0,12.95705 -0.31168,0 0,0.62336 -0.93504,0.13358 0,0.93504 -0.44526,0 0,-0.1781 -1.06862,0 0,0.48978 -0.31169,0 0,0.26716 -0.31168,0 0,0.31168 -0.26715,0 0,0.31168 -0.62337,0.1781 0,0.57884 -0.75694,0 -1.5584,-0.31168 -0.26716,0.1781 -0.93504,-0.31168 0,-0.75694 -0.31169,0 0,-0.62336 -0.31168,0 0,-1.06862 -0.57883,-0.13358 0,-0.31168 -1.24673,0 0,-0.62337 -1.2022,0 0,-0.57883 -1.24673,-0.31168 0,-1.69199 1.38031,-0.13358 0.75694,0.13358 0,-0.31168 1.82556,-0.13358 0,-0.31168 3.07229,-0.1781 0,-0.26716 0.31168,0 0,-0.31168 0.31168,0 0,-4.58617 -0.62336,-0.13358 0,-0.62336 -1.51388,0 -0.93505,0.13358 -0.31168,-0.13358 0,-0.31168 -0.57883,-0.13358 0,-2.00367 -1.24673,-0.31168 0,-4.71975 0.31168,0 0,-0.31168 1.38031,0 0,0.31168 0.31168,0 0,0.31168 0.57883,0.13358 0,0.62336 0.31169,0 0,0.31169 1.69198,0.13357 0,-0.26715 0.62336,-0.17811 0,-2.5825 -0.31168,0 0,-0.62336 -0.31168,0 0,-0.44526 -1.2022,0 -1.24673,0.31168 0,-0.31168 -0.62336,0 0,-0.31168 -1.51388,-0.44526 0,-1.24673 -0.57884,-0.13358 0,-0.31168 -0.31168,0 0,-0.31168 -0.75694,0 0,1.24673 0.13358,0 -0.13358,0 0,1.64746 0.26716,0 0,0.31168 0.31168,0 0,0.31168 0.31168,0 0,1.2022 0.1781,0 0,0.1781 -0.1781,0 0,0.62337 -0.31168,0 0,0.26715 -0.57884,0.17811 0,0.75694 -0.31168,0 0,0.44526 -0.31168,0 0,2.13724 -0.17811,0 0,0.31168 0.17811,0 0,2.58251 -0.31168,0 0,0.93504 -0.31168,0 0,3.33944 -0.31169,0 0,0.31169 -0.31168,0 0,0.31168 -0.26715,0 0,0.44526 -0.62337,0.1781 0,0.26716 -0.31168,0 0,0.62336 -0.31168,0 0,0.93504 -0.31168,0 0,0.26716 -0.890519,0.31168 0,0.62336 -0.311682,0 0,0.62337 -0.623363,0.13357 0,0.31168 -1.2022,0.13358 0,0.31168 -0.311681,0 0,0.75694 -0.623363,0.17811 0,0.31168 -0.311682,0 0,0.31168 -0.267155,0 0,0.13358 -0.935045,0.13358 0,0.1781 -0.133577,0 0,-0.1781 -1.068623,-0.13358 0,0.31168 -0.935044,0.13358 0,0.62336 -0.311681,0 0,0.62336 -0.311682,0 0,0.26716 -0.267155,0 0,0.48979 -1.246726,0 0,0.31168 -0.133578,0 z m 3.339444,-3.82923 0,-0.44526 -0.311681,0 0,-0.75694 0.311681,0 0,-1.06863 0.311682,0 0,-0.31168 0.311681,0 0,-0.31168 0.311682,0 0,-0.31168 0.890518,0 0,-0.31168 0.311682,0 0,-0.31168 0.935044,-0.13358 0,-0.62336 0.267156,0 0,-0.57884 0.311681,0 0,-0.31168 0.311682,0 0,-0.31168 0.623363,0 0,-0.31168 0.311681,0 0,-0.44526 0.133578,0 0,-0.31169 -3.517548,-0.1781 0,-0.26715 -4.719748,0 0,0.44525 -0.578837,0.13358 0,5.65479 0.578837,0 0,0.93505 2.760607,0.26715 0.445259,-0.13357 z m -0.311681,-10.50812 0,-0.62336 0.311681,0 0,-0.31169 0.311682,0 0,-0.31168 0.311681,0 0,-0.57883 -1.825563,-0.17811 0,-0.44526 -0.311681,0 0,-0.75694 -1.825563,-0.31168 -0.445259,0.13358 0,0.48978 -0.311682,0 0,0.89052 -0.311681,0 0,0.44526 0.311681,0 0,0.48979 0.311682,0 0,1.2022 0.578837,0 2.894185,-0.13358 z m -1.513882,-6.10005 0,-0.31168 0.311682,0 0,-0.62337 -0.311682,0 0,-0.44526 -0.935044,-0.31168 0,-1.82556 -0.267156,0 0,-1.06862 0.267156,0 0,-0.44526 0.311681,0 0,-1.82557 -0.311681,0 0,-0.80146 -3.962807,-0.44526 -0.578837,0.1781 0,-0.1781 -0.311682,0 -2.270822,0.1781 0,1.51388 0.267155,0 0,0.31169 0.311682,0 0,0.89051 0.311681,0 0,0.31169 0.311682,0 0,0.44525 0.311681,0 0.578837,-0.13357 0.935045,0.13357 1.2022,-0.13357 0.935044,0.44526 0,0.62336 -0.311681,0 0,0.31168 -0.133578,0 0,-0.1781 -0.623363,0 -3.205867,0.1781 0,0.44526 -0.311681,0 0,0.31168 -0.311682,0 0,0.44526 -0.267155,0 0,1.06862 0.267155,0 0,0.93505 1.246726,0.13357 0.890519,-0.13357 2.760607,0.31168 2.894185,-0.31168 z m 18.300155,-7.65846 0,-1.33578 -0.13358,0 0,-0.1781 0.13358,0 0,-1.2022 -0.31168,0 0,-1.51388 0.31168,0 0,-0.48979 -0.31168,0 0,-0.89052 -0.31168,0 0,-0.31168 -0.57884,0 0,-0.31168 -1.24673,-0.44526 0,-0.48979 -1.2022,0 -1.3803,0.17811 0,0.31168 -0.31168,0 0,0.75694 -0.31168,0 0,0.31168 -0.57884,0.13358 0,1.3803 0.26716,0 0,0.75694 0.31168,0 0,0.31169 0.31168,0 0,0.31168 2.44893,0 0,0.31168 0.31168,0 0,1.2022 0.31168,0 0,0.31168 0.26715,0 0,0.62336 0.31169,0 0,0.26716 1.24672,0.1781 0.44526,-0.1781 z" /><path
       id="path58"
       style="font-style:normal;font-variant:normal;font-weight:normal;font-stretch:normal;font-size:45.59454727px;font-family:Oradano-mincho-GSRR;-inkscape-font-specification:Oradano-mincho-GSRR"
       d="m 131.71637,226.17421 0.75694,-0.75694 q 0.0445,-0.0445 0.13358,-0.0445 2.35987,-0.80147 4.31901,0 1.82556,0.71241 5.8329,0.35621 4.05186,-0.35621 5.92195,-1.11315 1.91461,-0.71242 3.47302,-0.71242 1.60293,0 2.80513,1.2022 1.2022,1.15768 1.2022,2.0482 0,0.89051 -1.24673,1.73651 -1.06862,0.66789 -2.18177,2.84966 -1.11314,2.27082 -3.38397,5.29858 -2.22629,3.02776 -6.011,5.65479 -3.7847,2.62703 -5.69931,3.38397 -1.87009,0.75694 -6.32269,2.2263 -0.1781,0.0445 -0.26715,-0.0445 l -0.75694,-0.71241 q -0.35621,-0.26716 0.0445,-0.48979 2.98324,-1.51388 5.61027,-2.98323 2.5825,-1.46936 5.12048,-4.09639 2.58251,-2.5825 4.45259,-4.8088 1.82557,-2.18177 2.58251,-4.00733 0.75694,-1.82556 0.75694,-2.89419 0,-0.80146 -1.24673,-0.80146 -1.46935,0 -4.05186,0.3562 -2.5825,0.35621 -4.76427,1.11315 -2.35987,0.75694 -4.27449,0.35621 -2.04819,-0.40073 -2.84966,-2.80513 -0.0445,-0.17811 0.0445,-0.31168 z" /><path
       id="path60"
       style="font-style:normal;font-variant:normal;font-weight:normal;font-stretch:normal;font-size:45.59454727px;font-family:Oradano-mincho-GSRR;-inkscape-font-specification:Oradano-mincho-GSRR"
       d="m 176.68756,235.74728 0.66788,-0.62336 q 0.0891,-0.0891 0.22263,-0.0891 1.24673,0 2.58251,0.35621 1.24672,0.26716 3.07229,0 1.91461,-0.35621 3.51755,-0.35621 0.93504,0 2.04819,-0.22262 -0.13358,-1.33578 -0.13358,-2.0482 0,-1.15767 -0.31168,-1.73651 -0.26716,-0.53431 -2.04819,-1.15767 l -0.17811,-0.13358 q -0.089,-0.1781 0.0891,-0.35621 l 0.66789,-0.62336 q 0.0445,-0.0445 0.089,-0.0445 1.91462,-0.62336 2.93872,-0.62336 1.06862,0 2.04819,0.66789 1.02409,0.66789 1.3803,1.69198 0.35621,0.97957 0.0445,3.11682 0.48978,-0.089 0.97957,-0.13358 2.18177,-0.26715 3.47302,-0.26715 1.33578,0 2.31535,0.31168 1.24672,0.40073 0.84599,1.64746 -0.35621,1.06862 -1.46935,1.42483 -0.97957,0.3562 -2.93872,0.3562 l -3.51754,0 q -0.0445,0.66789 -0.0445,1.24673 0,2.18177 0.62336,4.36354 0.66789,2.27082 0.66789,4.85333 0,2.62703 -0.66789,3.91828 -0.71241,1.46935 -2.18177,1.46935 -1.3803,0 -2.09272,-0.71241 -0.71241,-0.71242 -0.71241,-1.78104 0,-0.84599 -1.73651,-2.00367 -0.26716,-0.1781 -0.0445,-0.40073 l 0.62337,-0.66789 q 0.71241,-0.84599 1.82556,-0.44526 0.1781,0.089 0.31168,0.089 0.26716,0 0.26716,-0.40073 0,-0.97957 -0.31169,-3.7847 -0.0445,-0.44526 -0.089,-0.93505 -3.11681,2.35988 -4.09638,3.6066 -1.33578,1.60294 -3.56208,3.20587 -1.15767,0.84599 -2.84966,1.3803 -1.69198,0.57884 -3.9628,0.89052 -0.13358,0.0445 -0.22263,-0.0445 l -0.66789,-0.62337 q -0.40074,-0.31168 0.0891,-0.48978 3.7847,-1.29125 5.96647,-3.11682 2.2263,-1.91461 3.78471,-3.7847 1.55841,-1.87009 2.22629,-3.38397 0.40074,-1.06862 0.48979,-2.27082 -0.44526,0.0891 -0.89052,0.0891 -1.87009,0.31168 -3.02776,0.93504 -1.33578,0.66789 -2.35988,0.66789 -1.02409,0 -2.09271,-0.66789 -0.97958,-0.71241 -1.69199,-2.00366 -0.13358,-0.17811 0.0445,-0.35621 z" /><path
       id="path62"
       style="font-style:normal;font-variant:normal;font-weight:normal;font-stretch:normal;font-size:45.59454727px;font-family:Oradano-mincho-GSRR;-inkscape-font-specification:Oradano-mincho-GSRR"
       d="m 220.67917,226.17421 0.75694,-0.71242 q 0.0445,-0.0445 0.1781,-0.0445 3.82923,0 5.38764,1.15767 1.64746,1.2022 1.64746,3.20587 0,2.09271 -1.33578,2.53797 -1.24673,0.40074 -2.44893,0 -1.24672,-0.44526 -1.69198,-2.09272 -0.35621,-1.42482 -2.53798,-3.60659 -0.1781,-0.22263 0.0445,-0.44526 z m -0.75694,15.67312 0.75694,-0.71241 q 0.13357,-0.13358 0.31168,-0.0445 1.42483,0.71242 2.93871,1.06862 1.3803,0.35621 4.63069,-1.82556 3.33945,-2.2263 7.07963,-4.8088 3.69565,-2.5825 6.27815,-5.56574 2.67156,-3.02776 7.92562,-6.05553 0.1781,-0.089 0.3562,0.0445 l 0.75695,0.75694 q 0.13357,0.22263 0,0.44526 -3.74018,3.69565 -5.96648,6.67889 -2.27082,3.02776 -6.011,6.011 -3.74018,2.98324 -6.36721,5.20953 -2.62703,2.27082 -4.89785,3.4285 -2.27082,1.11315 -3.51755,1.11315 -1.24672,0 -2.44892,-1.15768 -1.15768,-1.2022 -1.91462,-4.27449 -0.0445,-0.1781 0.0891,-0.31168 z" /><path
       id="path64"
       style="font-style:normal;font-variant:normal;font-weight:normal;font-stretch:normal;font-size:45.59454727px;font-family:Oradano-mincho-GSRR;-inkscape-font-specification:Oradano-mincho-GSRR"
       d="m 273.66501,219.58437 0.75694,-0.75694 q 0.13358,-0.089 0.31169,-0.0445 3.02776,0.75694 4.22996,1.91462 1.15767,1.2022 1.15767,2.44892 0,1.15768 -0.71241,3.47303 -0.40074,1.06862 -0.44526,2.71608 4.14091,0.75694 6.63436,2.13724 2.67156,1.55841 3.4285,2.71608 0.84599,1.24673 0.40073,2.49345 -0.40073,1.24673 -1.64746,1.69199 -1.33578,0.44526 -2.5825,-1.64746 -1.11315,-1.82556 -2.93871,-3.25039 -1.29126,-1.06862 -3.33945,-2.2263 0.0445,0.80147 0.0891,1.60293 0.40074,4.05186 1.15768,6.63437 0.75694,2.67155 0.75694,4.9869 0,2.35987 -0.84599,3.20587 -0.80147,0.80146 -2.09272,0.80146 -1.29125,0 -2.09272,-1.69198 -0.80147,-1.55841 -0.40073,-4.6307 0.31168,-2.93871 0,-4.40806 -0.35621,-1.51389 -0.75694,-3.74018 -0.40074,-2.27082 0,-5.65479 0.3562,-3.33945 0,-5.16501 -0.35621,-1.82556 -1.11315,-3.25039 -0.0891,-0.17811 0.0445,-0.35621 z" /></g></svg>