<?xml version="1.0" encoding="UTF-8" standalone="no"?>
<!-- Generator: Adobe Illustrator 19.0.0, SVG Export Plug-In . SVG Version: 6.00 Build 0)  -->

<svg
   xmlns:dc="http://purl.org/dc/elements/1.1/"
   xmlns:cc="http://creativecommons.org/ns#"
   xmlns:rdf="http://www.w3.org/1999/02/22-rdf-syntax-ns#"
   xmlns:svg="http://www.w3.org/2000/svg"
   xmlns="http://www.w3.org/2000/svg"
   xmlns:sodipodi="http://sodipodi.sourceforge.net/DTD/sodipodi-0.dtd"
   xmlns:inkscape="http://www.inkscape.org/namespaces/inkscape"
   version="1.1"
   id="Layer_1"
   x="0px"
   y="0px"
   viewBox="0 0 324.473 324.473"
   style="enable-background:new 0 0 324.473 324.473;"
   xml:space="preserve"
   inkscape:version="0.91 r13725"
   sodipodi:docname="sample.svg"><metadata
     id="metadata3498"><rdf:RDF><cc:Work
         rdf:about=""><dc:format>image/svg+xml</dc:format><dc:type
           rdf:resource="http://purl.org/dc/dcmitype/StillImage" /></cc:Work></rdf:RDF></metadata><defs
     id="defs3496" /><sodipodi:namedview
     pagecolor="#ffffff"
     bordercolor="#666666"
     borderopacity="1"
     objecttolerance="10"
     gridtolerance="10"
     guidetolerance="10"
     inkscape:pageopacity="0"
     inkscape:pageshadow="2"
     inkscape:window-width="2556"
     inkscape:window-height="1555"
     id="namedview3494"
     showgrid="false"
     inkscape:zoom="1.6714824"
     inkscape:cx="178.62437"
     inkscape:cy="164.75366"
     inkscape:window-x="4"
     inkscape:window-y="1"
     inkscape:window-maximized="1"
     inkscape:current-layer="Layer_1" /><g
     id="g3438"><path
       style="fill:#BFA070;"
       d="M316.331,68.616c0-12.792-10.467-23.259-23.259-23.259H60.476c-12.793,0-23.26,10.467-23.26,23.259   v232.596c0,12.793,10.467,23.261,23.26,23.261h232.596c12.793,0,23.259-10.468,23.259-23.261V68.616z"
       id="path3440" /><path
       style="fill:#DFCAA3;"
       d="M287.257,68.616c0-12.792-10.467-23.259-23.26-23.259H31.401c-12.792,0-23.259,10.467-23.259,23.259   v232.596c0,12.793,10.467,23.261,23.259,23.261h232.596c12.793,0,23.26-10.468,23.26-23.261V68.616z"
       id="path3442" /><g
       id="g3444"><rect
         x="43.031"
         y="80.246"
         style="fill:#DCDDDE;"
         width="209.336"
         height="209.337"
         id="rect3446" /><rect
         x="43.031"
         y="80.246"
         style="fill:#D16A70;"
         width="209.336"
         height="51.171"
         id="rect3448" /><rect
         x="20.934"
         y="80.246"
         style="fill:#FFFFFF;"
         width="209.337"
         height="209.337"
         id="rect3450" /><rect
         x="20.934"
         y="80.246"
         style="fill:#FF8189;"
         width="209.337"
         height="51.171"
         id="rect3452" /></g><path
       style="fill:#4C5B6B;"
       d="M85.379,0C51.4,0,23.756,27.643,23.756,61.624c0,16.458,6.409,31.935,18.048,43.574   c2.271,2.272,5.247,3.407,8.225,3.407c2.975,0,5.952-1.136,8.222-3.406c4.542-4.541,4.543-11.904,0.002-16.446   c-7.247-7.248-11.237-16.882-11.237-27.129c0-21.154,17.21-38.363,38.363-38.363c15.341,0,28.601,9.054,34.734,22.097h24.695   C137.653,19.248,113.728,0,85.379,0z"
       id="path3458" /><path
       style="fill:#3E4A57;"
       d="M159.577,0c-33.979,0-61.623,27.643-61.623,61.624c0,16.458,6.41,31.935,18.048,43.574   c2.271,2.272,5.247,3.407,8.225,3.407c2.975,0,5.952-1.136,8.223-3.406c4.542-4.541,4.543-11.904,0.002-16.446   c-7.247-7.248-11.237-16.882-11.237-27.129c0-21.154,17.21-38.363,38.364-38.363c15.34,0,28.601,9.054,34.734,22.097h24.694   C211.85,19.248,187.925,0,159.577,0z"
       id="path3460" /><path
       style="fill:#4C5B6B;"
       d="M233.774,0c-33.979,0-61.623,27.643-61.623,61.624c0,16.458,6.41,31.935,18.048,43.574   c2.271,2.272,5.247,3.407,8.224,3.407c2.976,0,5.953-1.136,8.223-3.406c4.542-4.541,4.543-11.904,0.001-16.446   c-7.246-7.248-11.237-16.882-11.237-27.129c0-21.154,17.21-38.363,38.364-38.363c15.341,0,28.601,9.054,34.734,22.097h24.694   C286.047,19.248,262.123,0,233.774,0z"
       id="path3462" /></g><g
     id="g3464" /><g
     id="g3466" /><g
     id="g3468" /><g
     id="g3470" /><g
     id="g3472" /><g
     id="g3474" /><g
     id="g3476" /><g
     id="g3478" /><g
     id="g3480" /><g
     id="g3482" /><g
     id="g3484" /><g
     id="g3486" /><g
     id="g3488" /><g
     id="g3490" /><g
     id="g3492" /><text
     xml:space="preserve"
     style="font-style:normal;font-weight:normal;font-size:72.95127869px;line-height:125%;font-family:Oradano-mincho-GSRR;letter-spacing:0px;word-spacing:0px;fill:#000000;fill-opacity:1;stroke:none;stroke-width:1px;stroke-linecap:butt;stroke-linejoin:miter;stroke-opacity:1;-inkscape-font-specification:Oradano-mincho-GSRR;font-stretch:normal;font-variant:normal;"
     x="29.173162"
     y="191.48851"
     id="text3500"
     sodipodi:linespacing="125%"><tspan
       sodipodi:role="line"
       id="tspan3502"
       x="29.173162"
       y="191.48851"
       style="font-style:normal;font-variant:normal;font-weight:normal;font-stretch:normal;font-size:45.59454727px;font-family:Oradano-mincho-GSRR;-inkscape-font-specification:Oradano-mincho-GSRR;">Oradano</tspan><tspan
       sodipodi:role="line"
       x="29.173162"
       y="248.48169"
       style="font-style:normal;font-variant:normal;font-weight:normal;font-stretch:normal;font-size:45.59454727px;font-family:Oradano-mincho-GSRR;-inkscape-font-specification:Oradano-mincho-GSRR;"
       id="tspan3504">明朝フォント</tspan></text>
</svg>